<svg width="143.000000" height="105.000000" viewBox="0 0 143 105" fill="none" xmlns="http://www.w3.org/2000/svg" xmlns:xlink="http://www.w3.org/1999/xlink">
	<desc>
			Created with Pixso.
	</desc>
	<defs>
		<clipPath id="clip2234_9828">
			<rect id="dots" width="143.000000" height="105.000000" fill="white" fill-opacity="0"/>
		</clipPath>
	</defs>
	<g clip-path="url(#clip2234_9828)">
		<path id="Vector" d="M4.08 30.85C4.08 32.02 3.2 32.89 2.04 32.89C0.87 32.89 0 32.02 0 30.85C0 29.69 0.87 28.82 2.04 28.82C3.2 28.82 4.08 29.79 4.08 30.85Z" fill="#FFFFFF" fill-opacity="1.000000" fill-rule="nonzero"/>
		<path id="Vector" d="M21.46 30.85C21.46 32.02 20.59 32.89 19.42 32.89C18.26 32.89 17.38 32.02 17.38 30.85C17.38 29.69 18.26 28.82 19.42 28.82C20.49 28.82 21.46 29.79 21.46 30.85Z" fill="#FFFFFF" fill-opacity="1.000000" fill-rule="nonzero"/>
		<path id="Vector" d="M38.76 30.85C38.76 32.02 37.88 32.89 36.72 32.89C35.55 32.89 34.68 32.02 34.68 30.85C34.68 29.69 35.55 28.82 36.72 28.82C37.88 28.82 38.76 29.79 38.76 30.85Z" fill="#FFFFFF" fill-opacity="1.000000" fill-rule="nonzero"/>
		<path id="Vector" d="M56.15 30.85C56.15 32.02 55.27 32.89 54.11 32.89C52.94 32.89 52.07 32.02 52.07 30.85C52.07 29.69 52.94 28.82 54.11 28.82C55.27 28.82 56.15 29.79 56.15 30.85Z" fill="#FFFFFF" fill-opacity="1.000000" fill-rule="nonzero"/>
		<path id="Vector" d="M73.54 30.85C73.54 32.02 72.66 32.89 71.5 32.89C70.33 32.89 69.46 32.02 69.46 30.85C69.46 29.69 70.33 28.82 71.5 28.82C72.56 28.82 73.54 29.79 73.54 30.85Z" fill="#FFFFFF" fill-opacity="1.000000" fill-rule="nonzero"/>
		<path id="Vector" d="M90.92 30.85C90.92 32.02 90.05 32.89 88.88 32.89C87.72 32.89 86.84 32.02 86.84 30.85C86.84 29.69 87.72 28.82 88.88 28.82C90.05 28.82 90.92 29.79 90.92 30.85Z" fill="#FFFFFF" fill-opacity="1.000000" fill-rule="nonzero"/>
		<path id="Vector" d="M108.22 30.85C108.22 32.02 107.34 32.89 106.18 32.89C105.01 32.89 104.14 32.02 104.14 30.85C104.14 29.69 105.01 28.82 106.18 28.82C107.34 28.82 108.22 29.79 108.22 30.85Z" fill="#FFFFFF" fill-opacity="1.000000" fill-rule="nonzero"/>
		<path id="Vector" d="M125.61 30.85C125.61 32.02 124.73 32.89 123.57 32.89C122.4 32.89 121.53 32.02 121.53 30.85C121.53 29.69 122.4 28.82 123.57 28.82C124.73 28.82 125.61 29.79 125.61 30.85Z" fill="#FFFFFF" fill-opacity="1.000000" fill-rule="nonzero"/>
		<path id="Vector" d="M143 30.85C143 32.02 142.12 32.89 140.96 32.89C139.79 32.89 138.92 32.02 138.92 30.85C138.92 29.69 139.79 28.82 140.96 28.82C142.02 28.82 143 29.79 143 30.85Z" fill="#FFFFFF" fill-opacity="1.000000" fill-rule="nonzero"/>
		<path id="Vector" d="M4.08 45.31C4.08 46.48 3.2 47.35 2.04 47.35C0.87 47.35 0 46.48 0 45.31C0 44.15 0.87 43.28 2.04 43.28C3.2 43.28 4.08 44.15 4.08 45.31Z" fill="#FFFFFF" fill-opacity="1.000000" fill-rule="nonzero"/>
		<path id="Vector" d="M21.46 45.31C21.46 46.48 20.59 47.35 19.42 47.35C18.26 47.35 17.38 46.48 17.38 45.31C17.38 44.15 18.26 43.28 19.42 43.28C20.49 43.28 21.46 44.15 21.46 45.31Z" fill="#FFFFFF" fill-opacity="1.000000" fill-rule="nonzero"/>
		<path id="Vector" d="M38.76 45.31C38.76 46.48 37.88 47.35 36.72 47.35C35.55 47.35 34.68 46.48 34.68 45.31C34.68 44.15 35.55 43.28 36.72 43.28C37.88 43.28 38.76 44.15 38.76 45.31Z" fill="#FFFFFF" fill-opacity="1.000000" fill-rule="nonzero"/>
		<path id="Vector" d="M56.15 45.31C56.15 46.48 55.27 47.35 54.11 47.35C52.94 47.35 52.07 46.48 52.07 45.31C52.07 44.15 52.94 43.28 54.11 43.28C55.27 43.28 56.15 44.15 56.15 45.31Z" fill="#FFFFFF" fill-opacity="1.000000" fill-rule="nonzero"/>
		<path id="Vector" d="M73.54 45.31C73.54 46.48 72.66 47.35 71.5 47.35C70.33 47.35 69.46 46.48 69.46 45.31C69.46 44.15 70.33 43.28 71.5 43.28C72.56 43.28 73.54 44.15 73.54 45.31Z" fill="#FFFFFF" fill-opacity="1.000000" fill-rule="nonzero"/>
		<path id="Vector" d="M90.92 45.31C90.92 46.48 90.05 47.35 88.88 47.35C87.72 47.35 86.84 46.48 86.84 45.31C86.84 44.15 87.72 43.28 88.88 43.28C90.05 43.28 90.92 44.15 90.92 45.31Z" fill="#FFFFFF" fill-opacity="1.000000" fill-rule="nonzero"/>
		<path id="Vector" d="M108.22 45.31C108.22 46.48 107.34 47.35 106.18 47.35C105.01 47.35 104.14 46.48 104.14 45.31C104.14 44.15 105.01 43.28 106.18 43.28C107.34 43.28 108.22 44.15 108.22 45.31Z" fill="#FFFFFF" fill-opacity="1.000000" fill-rule="nonzero"/>
		<path id="Vector" d="M125.61 45.31C125.61 46.48 124.73 47.35 123.57 47.35C122.4 47.35 121.53 46.48 121.53 45.31C121.53 44.15 122.4 43.28 123.57 43.28C124.73 43.28 125.61 44.15 125.61 45.31Z" fill="#FFFFFF" fill-opacity="1.000000" fill-rule="nonzero"/>
		<path id="Vector" d="M143 45.31C143 46.48 142.12 47.35 140.96 47.35C139.79 47.35 138.92 46.48 138.92 45.31C138.92 44.15 139.79 43.28 140.96 43.28C142.02 43.28 143 44.15 143 45.31Z" fill="#FFFFFF" fill-opacity="1.000000" fill-rule="nonzero"/>
		<path id="Vector" d="M4.08 2.03C4.08 3.2 3.2 4.07 2.04 4.07C0.87 4.07 0 3.2 0 2.03C0 0.87 0.87 0 2.04 0C3.2 0 4.08 0.87 4.08 2.03Z" fill="#FFFFFF" fill-opacity="1.000000" fill-rule="nonzero"/>
		<path id="Vector" d="M21.46 2.03C21.46 3.2 20.59 4.07 19.42 4.07C18.26 4.07 17.38 3.2 17.38 2.03C17.38 0.87 18.26 0 19.42 0C20.49 0 21.46 0.87 21.46 2.03Z" fill="#FFFFFF" fill-opacity="1.000000" fill-rule="nonzero"/>
		<path id="Vector" d="M38.76 2.03C38.76 3.2 37.88 4.07 36.72 4.07C35.55 4.07 34.68 3.2 34.68 2.03C34.68 0.87 35.65 0 36.72 0C37.88 0 38.76 0.87 38.76 2.03Z" fill="#FFFFFF" fill-opacity="1.000000" fill-rule="nonzero"/>
		<path id="Vector" d="M56.15 2.03C56.15 3.2 55.27 4.07 54.11 4.07C52.94 4.07 52.07 3.2 52.07 2.03C52.07 0.87 53.04 0 54.11 0C55.17 0 56.15 0.87 56.15 2.03Z" fill="#FFFFFF" fill-opacity="1.000000" fill-rule="nonzero"/>
		<path id="Vector" d="M73.54 2.03C73.54 3.2 72.66 4.07 71.5 4.07C70.33 4.07 69.46 3.2 69.46 2.03C69.46 0.87 70.33 0 71.5 0C72.56 0 73.54 0.87 73.54 2.03Z" fill="#FFFFFF" fill-opacity="1.000000" fill-rule="nonzero"/>
		<path id="Vector" d="M90.92 2.03C90.92 3.2 90.05 4.07 88.88 4.07C87.72 4.07 86.84 3.2 86.84 2.03C86.84 0.87 87.72 0 88.88 0C90.05 0 90.92 0.87 90.92 2.03Z" fill="#FFFFFF" fill-opacity="1.000000" fill-rule="nonzero"/>
		<path id="Vector" d="M108.22 2.03C108.22 3.2 107.34 4.07 106.18 4.07C105.01 4.07 104.14 3.2 104.14 2.03C104.14 0.87 105.01 0 106.18 0C107.34 0 108.22 0.87 108.22 2.03Z" fill="#FFFFFF" fill-opacity="1.000000" fill-rule="nonzero"/>
		<path id="Vector" d="M125.61 2.03C125.61 3.2 124.73 4.07 123.57 4.07C122.4 4.07 121.53 3.2 121.53 2.03C121.53 0.87 122.4 0 123.57 0C124.73 0 125.61 0.87 125.61 2.03Z" fill="#FFFFFF" fill-opacity="1.000000" fill-rule="nonzero"/>
		<path id="Vector" d="M143 2.03C143 3.2 142.12 4.07 140.96 4.07C139.79 4.07 138.92 3.2 138.92 2.03C138.92 0.87 139.79 0 140.96 0C142.02 0 143 0.87 143 2.03Z" fill="#FFFFFF" fill-opacity="1.000000" fill-rule="nonzero"/>
		<path id="Vector" d="M4.08 16.49C4.08 17.66 3.2 18.53 2.04 18.53C0.87 18.53 0 17.56 0 16.49C0 15.33 0.87 14.45 2.04 14.45C3.2 14.45 4.08 15.33 4.08 16.49Z" fill="#FFFFFF" fill-opacity="1.000000" fill-rule="nonzero"/>
		<path id="Vector" d="M21.46 16.49C21.46 17.66 20.59 18.53 19.42 18.53C18.26 18.53 17.38 17.66 17.38 16.49C17.38 15.33 18.26 14.45 19.42 14.45C20.49 14.45 21.46 15.33 21.46 16.49Z" fill="#FFFFFF" fill-opacity="1.000000" fill-rule="nonzero"/>
		<path id="Vector" d="M38.76 16.49C38.76 17.66 37.88 18.53 36.72 18.53C35.55 18.53 34.68 17.66 34.68 16.49C34.68 15.33 35.55 14.45 36.72 14.45C37.88 14.45 38.76 15.33 38.76 16.49Z" fill="#FFFFFF" fill-opacity="1.000000" fill-rule="nonzero"/>
		<path id="Vector" d="M56.15 16.49C56.15 17.66 55.27 18.53 54.11 18.53C52.94 18.53 52.07 17.66 52.07 16.49C52.07 15.33 52.94 14.45 54.11 14.45C55.27 14.45 56.15 15.33 56.15 16.49Z" fill="#FFFFFF" fill-opacity="1.000000" fill-rule="nonzero"/>
		<path id="Vector" d="M73.54 16.49C73.54 17.66 72.66 18.53 71.5 18.53C70.33 18.53 69.46 17.66 69.46 16.49C69.46 15.33 70.33 14.45 71.5 14.45C72.56 14.45 73.54 15.33 73.54 16.49Z" fill="#FFFFFF" fill-opacity="1.000000" fill-rule="nonzero"/>
		<path id="Vector" d="M90.92 16.49C90.92 17.66 90.05 18.53 88.88 18.53C87.72 18.53 86.84 17.66 86.84 16.49C86.84 15.33 87.72 14.45 88.88 14.45C90.05 14.45 90.92 15.33 90.92 16.49Z" fill="#FFFFFF" fill-opacity="1.000000" fill-rule="nonzero"/>
		<path id="Vector" d="M108.22 16.49C108.22 17.66 107.34 18.53 106.18 18.53C105.01 18.53 104.14 17.66 104.14 16.49C104.14 15.33 105.01 14.45 106.18 14.45C107.34 14.45 108.22 15.33 108.22 16.49Z" fill="#FFFFFF" fill-opacity="1.000000" fill-rule="nonzero"/>
		<path id="Vector" d="M125.61 16.49C125.61 17.66 124.73 18.53 123.57 18.53C122.4 18.53 121.53 17.66 121.53 16.49C121.53 15.33 122.4 14.45 123.57 14.45C124.73 14.45 125.61 15.33 125.61 16.49Z" fill="#FFFFFF" fill-opacity="1.000000" fill-rule="nonzero"/>
		<path id="Vector" d="M143 16.49C143 17.66 142.12 18.53 140.96 18.53C139.79 18.53 138.92 17.66 138.92 16.49C138.92 15.33 139.79 14.45 140.96 14.45C142.02 14.45 143 15.33 143 16.49Z" fill="#FFFFFF" fill-opacity="1.000000" fill-rule="nonzero"/>
		<path id="Vector" d="M4.08 59.68C4.08 60.84 3.2 61.72 2.04 61.72C0.87 61.72 0 60.84 0 59.68C0 58.51 0.87 57.64 2.04 57.64C3.2 57.64 4.08 58.61 4.08 59.68Z" fill="#FFFFFF" fill-opacity="1.000000" fill-rule="nonzero"/>
		<path id="Vector" d="M21.46 59.68C21.46 60.84 20.59 61.72 19.42 61.72C18.26 61.72 17.38 60.84 17.38 59.68C17.38 58.51 18.26 57.64 19.42 57.64C20.49 57.64 21.46 58.61 21.46 59.68Z" fill="#FFFFFF" fill-opacity="1.000000" fill-rule="nonzero"/>
		<path id="Vector" d="M38.76 59.68C38.76 60.84 37.88 61.72 36.72 61.72C35.55 61.72 34.68 60.84 34.68 59.68C34.68 58.51 35.55 57.64 36.72 57.64C37.88 57.64 38.76 58.61 38.76 59.68Z" fill="#FFFFFF" fill-opacity="1.000000" fill-rule="nonzero"/>
		<path id="Vector" d="M56.15 59.68C56.15 60.84 55.27 61.72 54.11 61.72C52.94 61.72 52.07 60.84 52.07 59.68C52.07 58.51 52.94 57.64 54.11 57.64C55.27 57.64 56.15 58.61 56.15 59.68Z" fill="#FFFFFF" fill-opacity="1.000000" fill-rule="nonzero"/>
		<path id="Vector" d="M73.54 59.68C73.54 60.84 72.66 61.72 71.5 61.72C70.33 61.72 69.46 60.84 69.46 59.68C69.46 58.51 70.33 57.64 71.5 57.64C72.56 57.64 73.54 58.61 73.54 59.68Z" fill="#FFFFFF" fill-opacity="1.000000" fill-rule="nonzero"/>
		<path id="Vector" d="M90.92 59.68C90.92 60.84 90.05 61.72 88.88 61.72C87.72 61.72 86.84 60.84 86.84 59.68C86.84 58.51 87.72 57.64 88.88 57.64C90.05 57.64 90.92 58.61 90.92 59.68Z" fill="#FFFFFF" fill-opacity="1.000000" fill-rule="nonzero"/>
		<path id="Vector" d="M108.22 59.68C108.22 60.84 107.34 61.72 106.18 61.72C105.01 61.72 104.14 60.84 104.14 59.68C104.14 58.51 105.01 57.64 106.18 57.64C107.34 57.64 108.22 58.61 108.22 59.68Z" fill="#FFFFFF" fill-opacity="1.000000" fill-rule="nonzero"/>
		<path id="Vector" d="M125.61 59.68C125.61 60.84 124.73 61.72 123.57 61.72C122.4 61.72 121.53 60.84 121.53 59.68C121.53 58.51 122.4 57.64 123.57 57.64C124.73 57.64 125.61 58.61 125.61 59.68Z" fill="#FFFFFF" fill-opacity="1.000000" fill-rule="nonzero"/>
		<path id="Vector" d="M143 59.68C143 60.84 142.12 61.72 140.96 61.72C139.79 61.72 138.92 60.84 138.92 59.68C138.92 58.51 139.79 57.64 140.96 57.64C142.02 57.64 143 58.61 143 59.68Z" fill="#FFFFFF" fill-opacity="1.000000" fill-rule="nonzero"/>
		<path id="Vector" d="M4.08 74.13C4.08 75.3 3.2 76.17 2.04 76.17C0.87 76.17 0 75.3 0 74.13C0 72.97 0.87 72.1 2.04 72.1C3.2 72.1 4.08 72.97 4.08 74.13Z" fill="#FFFFFF" fill-opacity="1.000000" fill-rule="nonzero"/>
		<path id="Vector" d="M21.46 74.13C21.46 75.3 20.59 76.17 19.42 76.17C18.26 76.17 17.38 75.3 17.38 74.13C17.38 72.97 18.26 72.1 19.42 72.1C20.49 72.1 21.46 72.97 21.46 74.13Z" fill="#FFFFFF" fill-opacity="1.000000" fill-rule="nonzero"/>
		<path id="Vector" d="M38.76 74.13C38.76 75.3 37.88 76.17 36.72 76.17C35.55 76.17 34.68 75.3 34.68 74.13C34.68 72.97 35.55 72.1 36.72 72.1C37.88 72.1 38.76 72.97 38.76 74.13Z" fill="#FFFFFF" fill-opacity="1.000000" fill-rule="nonzero"/>
		<path id="Vector" d="M56.15 74.13C56.15 75.26 55.23 76.17 54.11 76.17C52.98 76.17 52.07 75.26 52.07 74.13C52.07 73.01 52.98 72.1 54.11 72.1C55.23 72.1 56.15 73.01 56.15 74.13Z" fill="#FFFFFF" fill-opacity="1.000000" fill-rule="evenodd"/>
		<path id="Vector" d="M73.54 74.13C73.54 75.3 72.66 76.17 71.5 76.17C70.33 76.17 69.46 75.3 69.46 74.13C69.46 72.97 70.33 72.1 71.5 72.1C72.56 72.1 73.54 72.97 73.54 74.13Z" fill="#FFFFFF" fill-opacity="1.000000" fill-rule="nonzero"/>
		<path id="Vector" d="M90.92 74.13C90.92 75.3 90.05 76.17 88.88 76.17C87.72 76.17 86.84 75.3 86.84 74.13C86.84 72.97 87.72 72.1 88.88 72.1C90.05 72.1 90.92 72.97 90.92 74.13Z" fill="#FFFFFF" fill-opacity="1.000000" fill-rule="nonzero"/>
		<path id="Vector" d="M108.22 74.13C108.22 75.3 107.34 76.17 106.18 76.17C105.01 76.17 104.14 75.3 104.14 74.13C104.14 72.97 105.01 72.1 106.18 72.1C107.34 72.1 108.22 72.97 108.22 74.13Z" fill="#FFFFFF" fill-opacity="1.000000" fill-rule="nonzero"/>
		<path id="Vector" d="M125.61 74.13C125.61 75.26 124.69 76.17 123.57 76.17C122.44 76.17 121.53 75.26 121.53 74.13C121.53 73.01 122.44 72.1 123.57 72.1C124.69 72.1 125.61 73.01 125.61 74.13Z" fill="#FFFFFF" fill-opacity="1.000000" fill-rule="evenodd"/>
		<path id="Vector" d="M143 74.13C143 75.3 142.12 76.17 140.96 76.17C139.79 76.17 138.92 75.3 138.92 74.13C138.92 72.97 139.79 72.1 140.96 72.1C142.02 72.1 143 72.97 143 74.13Z" fill="#FFFFFF" fill-opacity="1.000000" fill-rule="nonzero"/>
		<path id="Vector" d="M4.08 88.59C4.08 89.76 3.2 90.63 2.04 90.63C0.87 90.63 0 89.76 0 88.59C0 87.43 0.87 86.56 2.04 86.56C3.2 86.56 4.08 87.43 4.08 88.59Z" fill="#FFFFFF" fill-opacity="1.000000" fill-rule="nonzero"/>
		<path id="Vector" d="M21.46 88.59C21.46 89.76 20.59 90.63 19.42 90.63C18.26 90.63 17.38 89.76 17.38 88.59C17.38 87.43 18.26 86.56 19.42 86.56C20.49 86.56 21.46 87.43 21.46 88.59Z" fill="#FFFFFF" fill-opacity="1.000000" fill-rule="nonzero"/>
		<path id="Vector" d="M38.76 88.59C38.76 89.76 37.88 90.63 36.72 90.63C35.55 90.63 34.68 89.76 34.68 88.59C34.68 87.43 35.55 86.56 36.72 86.56C37.88 86.56 38.76 87.43 38.76 88.59Z" fill="#FFFFFF" fill-opacity="1.000000" fill-rule="nonzero"/>
		<path id="Vector" d="M56.15 88.59C56.15 89.76 55.27 90.63 54.11 90.63C52.94 90.63 52.07 89.76 52.07 88.59C52.07 87.43 52.94 86.56 54.11 86.56C55.27 86.56 56.15 87.43 56.15 88.59Z" fill="#FFFFFF" fill-opacity="1.000000" fill-rule="nonzero"/>
		<path id="Vector" d="M73.54 88.59C73.54 89.76 72.66 90.63 71.5 90.63C70.33 90.63 69.46 89.76 69.46 88.59C69.46 87.43 70.33 86.56 71.5 86.56C72.56 86.56 73.54 87.43 73.54 88.59Z" fill="#FFFFFF" fill-opacity="1.000000" fill-rule="nonzero"/>
		<path id="Vector" d="M90.92 88.59C90.92 89.76 90.05 90.63 88.88 90.63C87.72 90.63 86.84 89.76 86.84 88.59C86.84 87.43 87.72 86.56 88.88 86.56C90.05 86.56 90.92 87.43 90.92 88.59Z" fill="#FFFFFF" fill-opacity="1.000000" fill-rule="nonzero"/>
		<path id="Vector" d="M108.22 88.59C108.22 89.76 107.34 90.63 106.18 90.63C105.01 90.63 104.14 89.76 104.14 88.59C104.14 87.43 105.01 86.56 106.18 86.56C107.34 86.56 108.22 87.43 108.22 88.59Z" fill="#FFFFFF" fill-opacity="1.000000" fill-rule="nonzero"/>
		<path id="Vector" d="M125.61 88.59C125.61 89.76 124.73 90.63 123.57 90.63C122.4 90.63 121.53 89.76 121.53 88.59C121.53 87.43 122.4 86.56 123.57 86.56C124.73 86.56 125.61 87.43 125.61 88.59Z" fill="#FFFFFF" fill-opacity="1.000000" fill-rule="nonzero"/>
		<path id="Vector" d="M143 88.59C143 89.76 142.12 90.63 140.96 90.63C139.79 90.63 138.92 89.76 138.92 88.59C138.92 87.43 139.79 86.56 140.96 86.56C142.02 86.56 143 87.43 143 88.59Z" fill="#FFFFFF" fill-opacity="1.000000" fill-rule="nonzero"/>
		<path id="Vector" d="M4.08 102.96C4.08 104.12 3.2 105 2.04 105C0.87 105 0 104.12 0 102.96C0 101.79 0.87 100.92 2.04 100.92C3.2 100.92 4.08 101.89 4.08 102.96Z" fill="#FFFFFF" fill-opacity="1.000000" fill-rule="nonzero"/>
		<path id="Vector" d="M21.46 102.96C21.46 104.12 20.59 105 19.42 105C18.26 105 17.38 104.12 17.38 102.96C17.38 101.79 18.26 100.92 19.42 100.92C20.49 100.92 21.46 101.89 21.46 102.96Z" fill="#FFFFFF" fill-opacity="1.000000" fill-rule="nonzero"/>
		<path id="Vector" d="M38.76 102.96C38.76 104.12 37.88 105 36.72 105C35.55 105 34.68 104.12 34.68 102.96C34.68 101.79 35.55 100.92 36.72 100.92C37.88 100.92 38.76 101.89 38.76 102.96Z" fill="#FFFFFF" fill-opacity="1.000000" fill-rule="nonzero"/>
		<path id="Vector" d="M56.15 102.96C56.15 104.12 55.27 105 54.11 105C52.94 105 52.07 104.12 52.07 102.96C52.07 101.79 52.94 100.92 54.11 100.92C55.27 100.92 56.15 101.89 56.15 102.96Z" fill="#FFFFFF" fill-opacity="1.000000" fill-rule="nonzero"/>
		<path id="Vector" d="M73.54 102.96C73.54 104.12 72.66 105 71.5 105C70.33 105 69.46 104.12 69.46 102.96C69.46 101.79 70.33 100.92 71.5 100.92C72.56 100.92 73.54 101.89 73.54 102.96Z" fill="#FFFFFF" fill-opacity="1.000000" fill-rule="nonzero"/>
		<path id="Vector" d="M90.92 102.96C90.92 104.12 90.05 105 88.88 105C87.72 105 86.84 104.12 86.84 102.96C86.84 101.79 87.72 100.92 88.88 100.92C90.05 100.92 90.92 101.89 90.92 102.96Z" fill="#FFFFFF" fill-opacity="1.000000" fill-rule="nonzero"/>
		<path id="Vector" d="M108.22 102.96C108.22 104.12 107.34 105 106.18 105C105.01 105 104.14 104.12 104.14 102.96C104.14 101.79 105.01 100.92 106.18 100.92C107.34 100.92 108.22 101.89 108.22 102.96Z" fill="#FFFFFF" fill-opacity="1.000000" fill-rule="nonzero"/>
		<path id="Vector" d="M125.61 102.96C125.61 104.12 124.73 105 123.57 105C122.4 105 121.53 104.12 121.53 102.96C121.53 101.79 122.4 100.92 123.57 100.92C124.73 100.92 125.61 101.89 125.61 102.96Z" fill="#FFFFFF" fill-opacity="1.000000" fill-rule="nonzero"/>
		<path id="Vector" d="M143 102.96C143 104.12 142.12 105 140.96 105C139.79 105 138.92 104.12 138.92 102.96C138.92 101.79 139.79 100.92 140.96 100.92C142.02 100.92 143 101.89 143 102.96Z" fill="#FFFFFF" fill-opacity="1.000000" fill-rule="nonzero"/>
	</g>
</svg>
