<svg width="2062.000000" height="1225.000000" viewBox="0 0 2062 1225" fill="none" xmlns="http://www.w3.org/2000/svg" xmlns:xlink="http://www.w3.org/1999/xlink">
	<desc>
			Created with Pixso.
	</desc>
	<defs>
		<clipPath id="clip2234_8803">
			<rect id="circles" width="284.000000" height="284.000000" transform="translate(0.000000 941.000000)" fill="white" fill-opacity="0"/>
		</clipPath>
		<clipPath id="clip2234_8808">
			<rect id="dots" width="187.000000" height="137.000000" transform="translate(1875.000000 794.000000)" fill="white" fill-opacity="0"/>
		</clipPath>
	</defs>
	<g opacity="0.200000">
		<g clip-path="url(#clip2234_8803)">
			<path id="Vector" d="M142.09 941C63.54 941 0 1004.54 0 1083.1C0 1161.46 63.54 1225.19 142.09 1225.19C220.45 1225.19 284.19 1161.65 284.19 1083.1C284 1004.54 220.45 941 142.09 941ZM142.09 1216.03C68.61 1216.03 9.16 1156.57 9.16 1083.1C9.16 1009.61 68.61 950.16 142.09 950.16C215.58 950.16 275.03 1009.61 275.03 1083.1C275.03 1156.39 215.38 1216.03 142.09 1216.03Z" fill="#FFFFFF" fill-opacity="1.000000" fill-rule="nonzero"/>
			<path id="Vector" d="M142.09 971.6C80.69 971.6 30.79 1021.5 30.79 1082.9C30.79 1144.3 80.69 1194.19 142.09 1194.19C203.49 1194.19 253.39 1144.5 253.39 1083.1C253.39 1021.5 203.49 971.6 142.09 971.6ZM142.09 1177.25C90.05 1177.25 47.75 1134.94 47.75 1082.9C47.75 1030.86 90.05 988.56 142.09 988.56C194.14 988.56 236.44 1030.86 236.44 1082.9C236.44 1134.94 194.14 1177.25 142.09 1177.25Z" fill="#FFFFFF" fill-opacity="1.000000" fill-rule="nonzero"/>
			<path id="Vector" d="M142.09 1020.53C107.59 1020.53 79.52 1048.6 79.52 1083.1C79.52 1117.6 107.4 1145.67 142.09 1145.67C176.59 1145.67 204.66 1117.6 204.66 1083.1C204.47 1048.6 176.59 1020.53 142.09 1020.53ZM142.09 1116.62C123.58 1116.62 108.57 1101.62 108.57 1083.1C108.57 1064.57 123.58 1049.56 142.09 1049.56C160.61 1049.56 175.62 1064.57 175.62 1083.1C175.62 1101.62 160.61 1116.62 142.09 1116.62Z" fill="#FFFFFF" fill-opacity="1.000000" fill-rule="nonzero"/>
		</g>
	</g>
	<g opacity="0.800000">
		<g clip-path="url(#clip2234_8808)">
			<path id="Vector" d="M1880.34 834.26C1880.34 835.78 1879.19 836.92 1877.67 836.92C1876.14 836.92 1875 835.78 1875 834.26C1875 832.74 1876.14 831.6 1877.67 831.6C1879.19 831.6 1880.34 832.87 1880.34 834.26Z" fill="#FFFFFF" fill-opacity="1.000000" fill-rule="nonzero"/>
			<path id="Vector" d="M1903.08 834.26C1903.08 835.78 1901.93 836.92 1900.41 836.92C1898.88 836.92 1897.74 835.78 1897.74 834.26C1897.74 832.74 1898.88 831.6 1900.41 831.6C1901.81 831.6 1903.08 832.87 1903.08 834.26Z" fill="#FFFFFF" fill-opacity="1.000000" fill-rule="nonzero"/>
			<path id="Vector" d="M1925.69 834.26C1925.69 835.78 1924.54 836.92 1923.02 836.92C1921.5 836.92 1920.35 835.78 1920.35 834.26C1920.35 832.74 1921.5 831.6 1923.02 831.6C1924.54 831.6 1925.69 832.87 1925.69 834.26Z" fill="#FFFFFF" fill-opacity="1.000000" fill-rule="nonzero"/>
			<path id="Vector" d="M1948.43 834.26C1948.43 835.78 1947.28 836.92 1945.76 836.92C1944.24 836.92 1943.09 835.78 1943.09 834.26C1943.09 832.74 1944.24 831.6 1945.76 831.6C1947.28 831.6 1948.43 832.87 1948.43 834.26Z" fill="#FFFFFF" fill-opacity="1.000000" fill-rule="nonzero"/>
			<path id="Vector" d="M1971.17 834.26C1971.17 835.78 1970.02 836.92 1968.5 836.92C1966.98 836.92 1965.83 835.78 1965.83 834.26C1965.83 832.74 1966.98 831.6 1968.5 831.6C1969.9 831.6 1971.17 832.87 1971.17 834.26Z" fill="#FFFFFF" fill-opacity="1.000000" fill-rule="nonzero"/>
			<path id="Vector" d="M1993.91 834.26C1993.91 835.78 1992.76 836.92 1991.24 836.92C1989.72 836.92 1988.57 835.78 1988.57 834.26C1988.57 832.74 1989.72 831.6 1991.24 831.6C1992.76 831.6 1993.91 832.87 1993.91 834.26Z" fill="#FFFFFF" fill-opacity="1.000000" fill-rule="nonzero"/>
			<path id="Vector" d="M2016.52 834.26C2016.52 835.78 2015.38 836.92 2013.85 836.92C2012.33 836.92 2011.18 835.78 2011.18 834.26C2011.18 832.74 2012.33 831.6 2013.85 831.6C2015.38 831.6 2016.52 832.87 2016.52 834.26Z" fill="#FFFFFF" fill-opacity="1.000000" fill-rule="nonzero"/>
			<path id="Vector" d="M2039.26 834.26C2039.26 835.78 2038.12 836.92 2036.59 836.92C2035.07 836.92 2033.92 835.78 2033.92 834.26C2033.92 832.74 2035.07 831.6 2036.59 831.6C2038.12 831.6 2039.26 832.87 2039.26 834.26Z" fill="#FFFFFF" fill-opacity="1.000000" fill-rule="nonzero"/>
			<path id="Vector" d="M2062 834.26C2062 835.78 2060.86 836.92 2059.33 836.92C2057.81 836.92 2056.65 835.78 2056.65 834.26C2056.65 832.74 2057.81 831.6 2059.33 831.6C2060.73 831.6 2062 832.87 2062 834.26Z" fill="#FFFFFF" fill-opacity="1.000000" fill-rule="nonzero"/>
			<path id="Vector" d="M1880.34 853.12C1880.34 854.64 1879.19 855.78 1877.67 855.78C1876.14 855.78 1875 854.64 1875 853.12C1875 851.6 1876.14 850.47 1877.67 850.47C1879.19 850.47 1880.34 851.6 1880.34 853.12Z" fill="#FFFFFF" fill-opacity="1.000000" fill-rule="nonzero"/>
			<path id="Vector" d="M1903.08 853.12C1903.08 854.64 1901.93 855.78 1900.41 855.78C1898.88 855.78 1897.74 854.64 1897.74 853.12C1897.74 851.6 1898.88 850.47 1900.41 850.47C1901.81 850.47 1903.08 851.6 1903.08 853.12Z" fill="#FFFFFF" fill-opacity="1.000000" fill-rule="nonzero"/>
			<path id="Vector" d="M1925.69 853.12C1925.69 854.64 1924.54 855.78 1923.02 855.78C1921.5 855.78 1920.35 854.64 1920.35 853.12C1920.35 851.6 1921.5 850.47 1923.02 850.47C1924.54 850.47 1925.69 851.6 1925.69 853.12Z" fill="#FFFFFF" fill-opacity="1.000000" fill-rule="nonzero"/>
			<path id="Vector" d="M1948.43 853.12C1948.43 854.64 1947.28 855.78 1945.76 855.78C1944.24 855.78 1943.09 854.64 1943.09 853.12C1943.09 851.6 1944.24 850.47 1945.76 850.47C1947.28 850.47 1948.43 851.6 1948.43 853.12Z" fill="#FFFFFF" fill-opacity="1.000000" fill-rule="nonzero"/>
			<path id="Vector" d="M1971.17 853.12C1971.17 854.64 1970.02 855.78 1968.5 855.78C1966.98 855.78 1965.83 854.64 1965.83 853.12C1965.83 851.6 1966.98 850.47 1968.5 850.47C1969.9 850.47 1971.17 851.6 1971.17 853.12Z" fill="#FFFFFF" fill-opacity="1.000000" fill-rule="nonzero"/>
			<path id="Vector" d="M1993.91 853.12C1993.91 854.64 1992.76 855.78 1991.24 855.78C1989.72 855.78 1988.57 854.64 1988.57 853.12C1988.57 851.6 1989.72 850.47 1991.24 850.47C1992.76 850.47 1993.91 851.6 1993.91 853.12Z" fill="#FFFFFF" fill-opacity="1.000000" fill-rule="nonzero"/>
			<path id="Vector" d="M2016.52 853.12C2016.52 854.64 2015.38 855.78 2013.85 855.78C2012.33 855.78 2011.18 854.64 2011.18 853.12C2011.18 851.6 2012.33 850.47 2013.85 850.47C2015.38 850.47 2016.52 851.6 2016.52 853.12Z" fill="#FFFFFF" fill-opacity="1.000000" fill-rule="nonzero"/>
			<path id="Vector" d="M2039.26 853.12C2039.26 854.64 2038.12 855.78 2036.59 855.78C2035.07 855.78 2033.92 854.64 2033.92 853.12C2033.92 851.6 2035.07 850.47 2036.59 850.47C2038.12 850.47 2039.26 851.6 2039.26 853.12Z" fill="#FFFFFF" fill-opacity="1.000000" fill-rule="nonzero"/>
			<path id="Vector" d="M2062 853.12C2062 854.64 2060.86 855.78 2059.33 855.78C2057.81 855.78 2056.65 854.64 2056.65 853.12C2056.65 851.6 2057.81 850.47 2059.33 850.47C2060.73 850.47 2062 851.6 2062 853.12Z" fill="#FFFFFF" fill-opacity="1.000000" fill-rule="nonzero"/>
			<path id="Vector" d="M1880.34 796.65C1880.34 798.17 1879.19 799.31 1877.67 799.31C1876.14 799.31 1875 798.17 1875 796.65C1875 795.13 1876.14 794 1877.67 794C1879.19 794 1880.34 795.13 1880.34 796.65Z" fill="#FFFFFF" fill-opacity="1.000000" fill-rule="nonzero"/>
			<path id="Vector" d="M1903.08 796.65C1903.08 798.17 1901.93 799.31 1900.41 799.31C1898.88 799.31 1897.74 798.17 1897.74 796.65C1897.74 795.13 1898.88 794 1900.41 794C1901.81 794 1903.08 795.13 1903.08 796.65Z" fill="#FFFFFF" fill-opacity="1.000000" fill-rule="nonzero"/>
			<path id="Vector" d="M1925.69 796.65C1925.69 798.17 1924.54 799.31 1923.02 799.31C1921.5 799.31 1920.35 798.17 1920.35 796.65C1920.35 795.13 1921.62 794 1923.02 794C1924.54 794 1925.69 795.13 1925.69 796.65Z" fill="#FFFFFF" fill-opacity="1.000000" fill-rule="nonzero"/>
			<path id="Vector" d="M1948.43 796.65C1948.43 798.17 1947.28 799.31 1945.76 799.31C1944.24 799.31 1943.09 798.17 1943.09 796.65C1943.09 795.13 1944.36 794 1945.76 794C1947.16 794 1948.43 795.13 1948.43 796.65Z" fill="#FFFFFF" fill-opacity="1.000000" fill-rule="nonzero"/>
			<path id="Vector" d="M1971.17 796.65C1971.17 798.17 1970.02 799.31 1968.5 799.31C1966.98 799.31 1965.83 798.17 1965.83 796.65C1965.83 795.13 1966.98 794 1968.5 794C1969.9 794 1971.17 795.13 1971.17 796.65Z" fill="#FFFFFF" fill-opacity="1.000000" fill-rule="nonzero"/>
			<path id="Vector" d="M1993.91 796.65C1993.91 798.17 1992.76 799.31 1991.24 799.31C1989.72 799.31 1988.57 798.17 1988.57 796.65C1988.57 795.13 1989.72 794 1991.24 794C1992.76 794 1993.91 795.13 1993.91 796.65Z" fill="#FFFFFF" fill-opacity="1.000000" fill-rule="nonzero"/>
			<path id="Vector" d="M2016.52 796.65C2016.52 798.17 2015.38 799.31 2013.85 799.31C2012.33 799.31 2011.18 798.17 2011.18 796.65C2011.18 795.13 2012.33 794 2013.85 794C2015.38 794 2016.52 795.13 2016.52 796.65Z" fill="#FFFFFF" fill-opacity="1.000000" fill-rule="nonzero"/>
			<path id="Vector" d="M2039.26 796.65C2039.26 798.17 2038.12 799.31 2036.59 799.31C2035.07 799.31 2033.92 798.17 2033.92 796.65C2033.92 795.13 2035.07 794 2036.59 794C2038.12 794 2039.26 795.13 2039.26 796.65Z" fill="#FFFFFF" fill-opacity="1.000000" fill-rule="nonzero"/>
			<path id="Vector" d="M2062 796.65C2062 798.17 2060.86 799.31 2059.33 799.31C2057.81 799.31 2056.65 798.17 2056.65 796.65C2056.65 795.13 2057.81 794 2059.33 794C2060.73 794 2062 795.13 2062 796.65Z" fill="#FFFFFF" fill-opacity="1.000000" fill-rule="nonzero"/>
			<path id="Vector" d="M1880.34 815.52C1880.34 817.04 1879.19 818.18 1877.67 818.18C1876.14 818.18 1875 816.91 1875 815.52C1875 814 1876.14 812.86 1877.67 812.86C1879.19 812.86 1880.34 814 1880.34 815.52Z" fill="#FFFFFF" fill-opacity="1.000000" fill-rule="nonzero"/>
			<path id="Vector" d="M1903.08 815.52C1903.08 817.04 1901.93 818.18 1900.41 818.18C1898.88 818.18 1897.74 817.04 1897.74 815.52C1897.74 814 1898.88 812.86 1900.41 812.86C1901.81 812.86 1903.08 814 1903.08 815.52Z" fill="#FFFFFF" fill-opacity="1.000000" fill-rule="nonzero"/>
			<path id="Vector" d="M1925.69 815.52C1925.69 817.04 1924.54 818.18 1923.02 818.18C1921.5 818.18 1920.35 817.04 1920.35 815.52C1920.35 814 1921.5 812.86 1923.02 812.86C1924.54 812.86 1925.69 814 1925.69 815.52Z" fill="#FFFFFF" fill-opacity="1.000000" fill-rule="nonzero"/>
			<path id="Vector" d="M1948.43 815.52C1948.43 817.04 1947.28 818.18 1945.76 818.18C1944.24 818.18 1943.09 817.04 1943.09 815.52C1943.09 814 1944.24 812.86 1945.76 812.86C1947.28 812.86 1948.43 814 1948.43 815.52Z" fill="#FFFFFF" fill-opacity="1.000000" fill-rule="nonzero"/>
			<path id="Vector" d="M1971.17 815.52C1971.17 817.04 1970.02 818.18 1968.5 818.18C1966.98 818.18 1965.83 817.04 1965.83 815.52C1965.83 814 1966.98 812.86 1968.5 812.86C1969.9 812.86 1971.17 814 1971.17 815.52Z" fill="#FFFFFF" fill-opacity="1.000000" fill-rule="nonzero"/>
			<path id="Vector" d="M1993.91 815.52C1993.91 817.04 1992.76 818.18 1991.24 818.18C1989.72 818.18 1988.57 817.04 1988.57 815.52C1988.57 814 1989.72 812.86 1991.24 812.86C1992.76 812.86 1993.91 814 1993.91 815.52Z" fill="#FFFFFF" fill-opacity="1.000000" fill-rule="nonzero"/>
			<path id="Vector" d="M2016.52 815.52C2016.52 817.04 2015.38 818.18 2013.85 818.18C2012.33 818.18 2011.18 817.04 2011.18 815.52C2011.18 814 2012.33 812.86 2013.85 812.86C2015.38 812.86 2016.52 814 2016.52 815.52Z" fill="#FFFFFF" fill-opacity="1.000000" fill-rule="nonzero"/>
			<path id="Vector" d="M2039.26 815.52C2039.26 817.04 2038.12 818.18 2036.59 818.18C2035.07 818.18 2033.92 817.04 2033.92 815.52C2033.92 814 2035.07 812.86 2036.59 812.86C2038.12 812.86 2039.26 814 2039.26 815.52Z" fill="#FFFFFF" fill-opacity="1.000000" fill-rule="nonzero"/>
			<path id="Vector" d="M2062 815.52C2062 817.04 2060.86 818.18 2059.33 818.18C2057.81 818.18 2056.65 817.04 2056.65 815.52C2056.65 814 2057.81 812.86 2059.33 812.86C2060.73 812.86 2062 814 2062 815.52Z" fill="#FFFFFF" fill-opacity="1.000000" fill-rule="nonzero"/>
			<path id="Vector" d="M1880.34 871.86C1880.34 873.38 1879.19 874.52 1877.67 874.52C1876.14 874.52 1875 873.38 1875 871.86C1875 870.35 1876.14 869.21 1877.67 869.21C1879.19 869.21 1880.34 870.47 1880.34 871.86Z" fill="#FFFFFF" fill-opacity="1.000000" fill-rule="nonzero"/>
			<path id="Vector" d="M1903.08 871.86C1903.08 873.38 1901.93 874.52 1900.41 874.52C1898.88 874.52 1897.74 873.38 1897.74 871.86C1897.74 870.35 1898.88 869.21 1900.41 869.21C1901.81 869.21 1903.08 870.47 1903.08 871.86Z" fill="#FFFFFF" fill-opacity="1.000000" fill-rule="nonzero"/>
			<path id="Vector" d="M1925.69 871.86C1925.69 873.38 1924.54 874.52 1923.02 874.52C1921.5 874.52 1920.35 873.38 1920.35 871.86C1920.35 870.35 1921.5 869.21 1923.02 869.21C1924.54 869.21 1925.69 870.47 1925.69 871.86Z" fill="#FFFFFF" fill-opacity="1.000000" fill-rule="nonzero"/>
			<path id="Vector" d="M1948.43 871.86C1948.43 873.38 1947.28 874.52 1945.76 874.52C1944.24 874.52 1943.09 873.38 1943.09 871.86C1943.09 870.35 1944.24 869.21 1945.76 869.21C1947.28 869.21 1948.43 870.47 1948.43 871.86Z" fill="#FFFFFF" fill-opacity="1.000000" fill-rule="nonzero"/>
			<path id="Vector" d="M1971.17 871.86C1971.17 873.38 1970.02 874.52 1968.5 874.52C1966.98 874.52 1965.83 873.38 1965.83 871.86C1965.83 870.35 1966.98 869.21 1968.5 869.21C1969.9 869.21 1971.17 870.47 1971.17 871.86Z" fill="#FFFFFF" fill-opacity="1.000000" fill-rule="nonzero"/>
			<path id="Vector" d="M1993.91 871.86C1993.91 873.38 1992.76 874.52 1991.24 874.52C1989.72 874.52 1988.57 873.38 1988.57 871.86C1988.57 870.35 1989.72 869.21 1991.24 869.21C1992.76 869.21 1993.91 870.47 1993.91 871.86Z" fill="#FFFFFF" fill-opacity="1.000000" fill-rule="nonzero"/>
			<path id="Vector" d="M2016.52 871.86C2016.52 873.38 2015.38 874.52 2013.85 874.52C2012.33 874.52 2011.18 873.38 2011.18 871.86C2011.18 870.35 2012.33 869.21 2013.85 869.21C2015.38 869.21 2016.52 870.47 2016.52 871.86Z" fill="#FFFFFF" fill-opacity="1.000000" fill-rule="nonzero"/>
			<path id="Vector" d="M2039.26 871.86C2039.26 873.38 2038.12 874.52 2036.59 874.52C2035.07 874.52 2033.92 873.38 2033.92 871.86C2033.92 870.35 2035.07 869.21 2036.59 869.21C2038.12 869.21 2039.26 870.47 2039.26 871.86Z" fill="#FFFFFF" fill-opacity="1.000000" fill-rule="nonzero"/>
			<path id="Vector" d="M2062 871.86C2062 873.38 2060.86 874.52 2059.33 874.52C2057.81 874.52 2056.65 873.38 2056.65 871.86C2056.65 870.35 2057.81 869.21 2059.33 869.21C2060.73 869.21 2062 870.47 2062 871.86Z" fill="#FFFFFF" fill-opacity="1.000000" fill-rule="nonzero"/>
			<path id="Vector" d="M1880.34 890.73C1880.34 892.25 1879.19 893.39 1877.67 893.39C1876.14 893.39 1875 892.25 1875 890.73C1875 889.21 1876.14 888.07 1877.67 888.07C1879.19 888.07 1880.34 889.21 1880.34 890.73Z" fill="#FFFFFF" fill-opacity="1.000000" fill-rule="nonzero"/>
			<path id="Vector" d="M1903.08 890.73C1903.08 892.25 1901.93 893.39 1900.41 893.39C1898.88 893.39 1897.74 892.25 1897.74 890.73C1897.74 889.21 1898.88 888.07 1900.41 888.07C1901.81 888.07 1903.08 889.21 1903.08 890.73Z" fill="#FFFFFF" fill-opacity="1.000000" fill-rule="nonzero"/>
			<path id="Vector" d="M1925.69 890.73C1925.69 892.25 1924.54 893.39 1923.02 893.39C1921.5 893.39 1920.35 892.25 1920.35 890.73C1920.35 889.21 1921.5 888.07 1923.02 888.07C1924.54 888.07 1925.69 889.21 1925.69 890.73Z" fill="#FFFFFF" fill-opacity="1.000000" fill-rule="nonzero"/>
			<path id="Vector" d="M1948.43 890.73C1948.43 892.2 1947.23 893.39 1945.76 893.39C1944.29 893.39 1943.09 892.2 1943.09 890.73C1943.09 889.26 1944.29 888.07 1945.76 888.07C1947.23 888.07 1948.43 889.26 1948.43 890.73Z" fill="#FFFFFF" fill-opacity="1.000000" fill-rule="evenodd"/>
			<path id="Vector" d="M1971.17 890.73C1971.17 892.25 1970.02 893.39 1968.5 893.39C1966.98 893.39 1965.83 892.25 1965.83 890.73C1965.83 889.21 1966.98 888.07 1968.5 888.07C1969.9 888.07 1971.17 889.21 1971.17 890.73Z" fill="#FFFFFF" fill-opacity="1.000000" fill-rule="nonzero"/>
			<path id="Vector" d="M1993.91 890.73C1993.91 892.25 1992.76 893.39 1991.24 893.39C1989.72 893.39 1988.57 892.25 1988.57 890.73C1988.57 889.21 1989.72 888.07 1991.24 888.07C1992.76 888.07 1993.91 889.21 1993.91 890.73Z" fill="#FFFFFF" fill-opacity="1.000000" fill-rule="nonzero"/>
			<path id="Vector" d="M2016.52 890.73C2016.52 892.25 2015.38 893.39 2013.85 893.39C2012.33 893.39 2011.18 892.25 2011.18 890.73C2011.18 889.21 2012.33 888.07 2013.85 888.07C2015.38 888.07 2016.52 889.21 2016.52 890.73Z" fill="#FFFFFF" fill-opacity="1.000000" fill-rule="nonzero"/>
			<path id="Vector" d="M2039.26 890.73C2039.26 892.2 2038.07 893.39 2036.59 893.39C2035.12 893.39 2033.92 892.2 2033.92 890.73C2033.92 889.26 2035.12 888.07 2036.59 888.07C2038.07 888.07 2039.26 889.26 2039.26 890.73Z" fill="#FFFFFF" fill-opacity="1.000000" fill-rule="evenodd"/>
			<path id="Vector" d="M2062 890.73C2062 892.25 2060.86 893.39 2059.33 893.39C2057.81 893.39 2056.65 892.25 2056.65 890.73C2056.65 889.21 2057.81 888.07 2059.33 888.07C2060.73 888.07 2062 889.21 2062 890.73Z" fill="#FFFFFF" fill-opacity="1.000000" fill-rule="nonzero"/>
			<path id="Vector" d="M1880.34 909.6C1880.34 911.12 1879.19 912.26 1877.67 912.26C1876.14 912.26 1875 911.12 1875 909.6C1875 908.08 1876.14 906.94 1877.67 906.94C1879.19 906.94 1880.34 908.08 1880.34 909.6Z" fill="#FFFFFF" fill-opacity="1.000000" fill-rule="nonzero"/>
			<path id="Vector" d="M1903.08 909.6C1903.08 911.12 1901.93 912.26 1900.41 912.26C1898.88 912.26 1897.74 911.12 1897.74 909.6C1897.74 908.08 1898.88 906.94 1900.41 906.94C1901.81 906.94 1903.08 908.08 1903.08 909.6Z" fill="#FFFFFF" fill-opacity="1.000000" fill-rule="nonzero"/>
			<path id="Vector" d="M1925.69 909.6C1925.69 911.12 1924.54 912.26 1923.02 912.26C1921.5 912.26 1920.35 911.12 1920.35 909.6C1920.35 908.08 1921.5 906.94 1923.02 906.94C1924.54 906.94 1925.69 908.08 1925.69 909.6Z" fill="#FFFFFF" fill-opacity="1.000000" fill-rule="nonzero"/>
			<path id="Vector" d="M1948.43 909.6C1948.43 911.12 1947.28 912.26 1945.76 912.26C1944.24 912.26 1943.09 911.12 1943.09 909.6C1943.09 908.08 1944.24 906.94 1945.76 906.94C1947.28 906.94 1948.43 908.08 1948.43 909.6Z" fill="#FFFFFF" fill-opacity="1.000000" fill-rule="nonzero"/>
			<path id="Vector" d="M1971.17 909.6C1971.17 911.12 1970.02 912.26 1968.5 912.26C1966.98 912.26 1965.83 911.12 1965.83 909.6C1965.83 908.08 1966.98 906.94 1968.5 906.94C1969.9 906.94 1971.17 908.08 1971.17 909.6Z" fill="#FFFFFF" fill-opacity="1.000000" fill-rule="nonzero"/>
			<path id="Vector" d="M1993.91 909.6C1993.91 911.12 1992.76 912.26 1991.24 912.26C1989.72 912.26 1988.57 911.12 1988.57 909.6C1988.57 908.08 1989.72 906.94 1991.24 906.94C1992.76 906.94 1993.91 908.08 1993.91 909.6Z" fill="#FFFFFF" fill-opacity="1.000000" fill-rule="nonzero"/>
			<path id="Vector" d="M2016.52 909.6C2016.52 911.12 2015.38 912.26 2013.85 912.26C2012.33 912.26 2011.18 911.12 2011.18 909.6C2011.18 908.08 2012.33 906.94 2013.85 906.94C2015.38 906.94 2016.52 908.08 2016.52 909.6Z" fill="#FFFFFF" fill-opacity="1.000000" fill-rule="nonzero"/>
			<path id="Vector" d="M2039.26 909.6C2039.26 911.12 2038.12 912.26 2036.59 912.26C2035.07 912.26 2033.92 911.12 2033.92 909.6C2033.92 908.08 2035.07 906.94 2036.59 906.94C2038.12 906.94 2039.26 908.08 2039.26 909.6Z" fill="#FFFFFF" fill-opacity="1.000000" fill-rule="nonzero"/>
			<path id="Vector" d="M2062 909.6C2062 911.12 2060.86 912.26 2059.33 912.26C2057.81 912.26 2056.65 911.12 2056.65 909.6C2056.65 908.08 2057.81 906.94 2059.33 906.94C2060.73 906.94 2062 908.08 2062 909.6Z" fill="#FFFFFF" fill-opacity="1.000000" fill-rule="nonzero"/>
			<path id="Vector" d="M1880.34 928.34C1880.34 929.85 1879.19 931 1877.67 931C1876.14 931 1875 929.85 1875 928.34C1875 926.82 1876.14 925.68 1877.67 925.68C1879.19 925.68 1880.34 926.94 1880.34 928.34Z" fill="#FFFFFF" fill-opacity="1.000000" fill-rule="nonzero"/>
			<path id="Vector" d="M1903.08 928.34C1903.08 929.85 1901.93 931 1900.41 931C1898.88 931 1897.74 929.85 1897.74 928.34C1897.74 926.82 1898.88 925.68 1900.41 925.68C1901.81 925.68 1903.08 926.94 1903.08 928.34Z" fill="#FFFFFF" fill-opacity="1.000000" fill-rule="nonzero"/>
			<path id="Vector" d="M1925.69 928.34C1925.69 929.85 1924.54 931 1923.02 931C1921.5 931 1920.35 929.85 1920.35 928.34C1920.35 926.82 1921.5 925.68 1923.02 925.68C1924.54 925.68 1925.69 926.94 1925.69 928.34Z" fill="#FFFFFF" fill-opacity="1.000000" fill-rule="nonzero"/>
			<path id="Vector" d="M1948.43 928.34C1948.43 929.85 1947.28 931 1945.76 931C1944.24 931 1943.09 929.85 1943.09 928.34C1943.09 926.82 1944.24 925.68 1945.76 925.68C1947.28 925.68 1948.43 926.94 1948.43 928.34Z" fill="#FFFFFF" fill-opacity="1.000000" fill-rule="nonzero"/>
			<path id="Vector" d="M1971.17 928.34C1971.17 929.85 1970.02 931 1968.5 931C1966.98 931 1965.83 929.85 1965.83 928.34C1965.83 926.82 1966.98 925.68 1968.5 925.68C1969.9 925.68 1971.17 926.94 1971.17 928.34Z" fill="#FFFFFF" fill-opacity="1.000000" fill-rule="nonzero"/>
			<path id="Vector" d="M1993.91 928.34C1993.91 929.85 1992.76 931 1991.24 931C1989.72 931 1988.57 929.85 1988.57 928.34C1988.57 926.82 1989.72 925.68 1991.24 925.68C1992.76 925.68 1993.91 926.94 1993.91 928.34Z" fill="#FFFFFF" fill-opacity="1.000000" fill-rule="nonzero"/>
			<path id="Vector" d="M2016.52 928.34C2016.52 929.85 2015.38 931 2013.85 931C2012.33 931 2011.18 929.85 2011.18 928.34C2011.18 926.82 2012.33 925.68 2013.85 925.68C2015.38 925.68 2016.52 926.94 2016.52 928.34Z" fill="#FFFFFF" fill-opacity="1.000000" fill-rule="nonzero"/>
			<path id="Vector" d="M2039.26 928.34C2039.26 929.85 2038.12 931 2036.59 931C2035.07 931 2033.92 929.85 2033.92 928.34C2033.92 926.82 2035.07 925.68 2036.59 925.68C2038.12 925.68 2039.26 926.94 2039.26 928.34Z" fill="#FFFFFF" fill-opacity="1.000000" fill-rule="nonzero"/>
			<path id="Vector" d="M2062 928.34C2062 929.85 2060.86 931 2059.33 931C2057.81 931 2056.65 929.85 2056.65 928.34C2056.65 926.82 2057.81 925.68 2059.33 925.68C2060.73 925.68 2062 926.94 2062 928.34Z" fill="#FFFFFF" fill-opacity="1.000000" fill-rule="nonzero"/>
		</g>
	</g>
	<g opacity="0.300000">
		<path id="Vector" d="M1873.81 120.22L1883.46 129.87L1857.78 155.56L1832.1 129.87L1841.68 120.29L1857.71 136.31L1873.81 120.22Z" fill="#FFFFFF" fill-opacity="1.000000" fill-rule="nonzero"/>
		<path id="Vector" d="M1873.81 85.53L1883.39 95.12L1857.71 120.8L1832.1 95.19L1841.76 85.53L1857.78 101.56L1873.81 85.53Z" fill="#FFFFFF" fill-opacity="1.000000" fill-rule="nonzero"/>
		<path id="Vector" d="M1873.73 50.78L1883.39 60.43L1857.78 86.05L1832.1 60.36L1841.68 50.78L1857.71 66.8L1873.73 50.78Z" fill="#FFFFFF" fill-opacity="1.000000" fill-rule="nonzero"/>
		<path id="Vector" d="M1873.81 16.02L1883.46 25.68L1857.78 51.36L1832.1 25.68L1841.76 16.02L1857.78 32.04L1873.81 16.02Z" fill="#FFFFFF" fill-opacity="1.000000" fill-rule="nonzero"/>
	</g>
	<g opacity="0.300000">
		<path id="Vector" d="M906 853.55C892.07 867.48 869.37 867.48 855.44 853.55C841.51 839.62 841.51 816.93 855.44 803L906 853.55Z" fill="#FFFFFF" fill-opacity="1.000000" fill-rule="nonzero"/>
	</g>
	<g opacity="0.300000">
		<path id="Vector" d="M960.48 574.89C971.2 574.89 979.93 566.16 979.93 555.45C979.93 544.74 971.2 536.01 960.48 536.01L960.48 574.89Z" fill="#FFFFFF" fill-opacity="1.000000" fill-rule="nonzero"/>
		<path id="Vector" d="M930.14 574.89C940.86 574.89 949.59 566.16 949.59 555.45C949.59 544.74 940.86 536.01 930.14 536.01L930.14 574.89Z" fill="#FFFFFF" fill-opacity="1.000000" fill-rule="nonzero"/>
		<path id="Vector" d="M899.79 574.89C910.51 574.89 919.24 566.16 919.24 555.45C919.24 544.74 910.51 536.01 899.79 536.01L899.79 574.89Z" fill="#FFFFFF" fill-opacity="1.000000" fill-rule="nonzero"/>
	</g>
	<g opacity="0.300000">
		<path id="Vector" d="M258.3 189.92L258.3 178L290 178L290 209.69L278.16 209.69L278.16 189.92L258.3 189.92Z" fill="#FFFFFF" fill-opacity="1.000000" fill-rule="nonzero"/>
		<path id="Vector" d="M236.89 211.32L236.89 199.49L268.59 199.49L268.59 231.1L256.67 231.1L256.67 211.32L236.89 211.32Z" fill="#FFFFFF" fill-opacity="1.000000" fill-rule="nonzero"/>
		<path id="Vector" d="M215.49 232.81L215.49 220.89L247.1 220.89L247.1 252.59L235.27 252.59L235.27 232.81L215.49 232.81Z" fill="#FFFFFF" fill-opacity="1.000000" fill-rule="nonzero"/>
		<path id="Vector" d="M194 254.22L194 242.3L225.7 242.3L225.7 274L213.77 274L213.77 254.22L194 254.22Z" fill="#FFFFFF" fill-opacity="1.000000" fill-rule="nonzero"/>
	</g>
</svg>
