<svg width="145.000000" height="145.000000" viewBox="0 0 145 145" fill="none" xmlns="http://www.w3.org/2000/svg" xmlns:xlink="http://www.w3.org/1999/xlink">
	<desc>
			Created with Pixso.
	</desc>
	<defs>
		<clipPath id="clip2234_9749">
			<rect id="circles" width="145.000000" height="145.000000" fill="white" fill-opacity="0"/>
		</clipPath>
	</defs>
	<g opacity="0.600000">
		<g clip-path="url(#clip2234_9749)">
			<path id="Vector" d="M72.54 0C32.44 0 0 32.44 0 72.54C0 112.55 32.44 145.1 72.54 145.1C112.55 145.1 145.1 112.65 145.1 72.54C145 32.44 112.55 0 72.54 0ZM72.54 140.42C35.03 140.42 4.67 110.06 4.67 72.54C4.67 35.03 35.03 4.67 72.54 4.67C110.06 4.67 140.42 35.03 140.42 72.54C140.42 109.96 109.96 140.42 72.54 140.42Z" fill="#FFFFFF" fill-opacity="1.000000" fill-rule="nonzero"/>
			<path id="Vector" d="M72.54 15.62C41.2 15.62 15.72 41.1 15.72 72.45C15.72 103.79 41.2 129.27 72.54 129.27C103.89 129.27 129.37 103.89 129.37 72.55C129.37 41.1 103.89 15.62 72.54 15.62ZM72.54 120.61C45.97 120.61 24.38 99.02 24.38 72.45C24.38 45.87 45.97 24.28 72.54 24.28C99.12 24.28 120.71 45.87 120.71 72.45C120.71 99.02 99.12 120.61 72.54 120.61Z" fill="#FFFFFF" fill-opacity="1.000000" fill-rule="nonzero"/>
			<path id="Vector" d="M72.55 40.6C54.93 40.6 40.6 54.93 40.6 72.54C40.6 90.16 54.83 104.49 72.55 104.49C90.16 104.49 104.49 90.16 104.49 72.54C104.39 54.93 90.16 40.6 72.55 40.6ZM72.55 89.66C63.09 89.66 55.43 82 55.43 72.54C55.43 63.09 63.09 55.43 72.55 55.43C82 55.43 89.66 63.09 89.66 72.54C89.66 82 82 89.66 72.55 89.66Z" fill="#FFFFFF" fill-opacity="1.000000" fill-rule="nonzero"/>
		</g>
	</g>
</svg>
