<svg width="136.000000" height="114.681641" viewBox="0 0 136 114.682" fill="none" xmlns="http://www.w3.org/2000/svg" xmlns:xlink="http://www.w3.org/1999/xlink">
	<desc>
			Created with Pixso.
	</desc>
	<defs/>
	<path id="Vector" d="M3.88 33.7C3.88 34.97 3.04 35.92 1.94 35.92C0.83 35.92 0 34.97 0 33.7C0 32.43 0.83 31.47 1.94 31.47C3.04 31.47 3.88 32.53 3.88 33.7Z" fill="#FFCF2D" fill-opacity="1.000000" fill-rule="nonzero"/>
	<path id="Vector" d="M20.41 33.7C20.41 34.97 19.58 35.92 18.47 35.92C17.36 35.92 16.53 34.97 16.53 33.7C16.53 32.43 17.36 31.47 18.47 31.47C19.49 31.47 20.41 32.53 20.41 33.7Z" fill="#FFCF2D" fill-opacity="1.000000" fill-rule="nonzero"/>
	<path id="Vector" d="M36.86 33.7C36.86 34.97 36.03 35.92 34.92 35.92C33.81 35.92 32.98 34.97 32.98 33.7C32.98 32.43 33.81 31.47 34.92 31.47C36.03 31.47 36.86 32.53 36.86 33.7Z" fill="#FFCF2D" fill-opacity="1.000000" fill-rule="nonzero"/>
	<path id="Vector" d="M53.4 33.7C53.4 34.97 52.57 35.92 51.46 35.92C50.35 35.92 49.52 34.97 49.52 33.7C49.52 32.43 50.35 31.47 51.46 31.47C52.57 31.47 53.4 32.53 53.4 33.7Z" fill="#FFCF2D" fill-opacity="1.000000" fill-rule="nonzero"/>
	<path id="Vector" d="M69.93 33.7C69.93 34.97 69.1 35.92 68 35.92C66.89 35.92 66.05 34.97 66.05 33.7C66.05 32.43 66.89 31.47 68 31.47C69.01 31.47 69.93 32.53 69.93 33.7Z" fill="#FFCF2D" fill-opacity="1.000000" fill-rule="nonzero"/>
	<path id="Vector" d="M86.47 33.7C86.47 34.97 85.64 35.92 84.53 35.92C83.42 35.92 82.59 34.97 82.59 33.7C82.59 32.43 83.42 31.47 84.53 31.47C85.64 31.47 86.47 32.53 86.47 33.7Z" fill="#FFCF2D" fill-opacity="1.000000" fill-rule="nonzero"/>
	<path id="Vector" d="M102.92 33.7C102.92 34.97 102.09 35.92 100.98 35.92C99.87 35.92 99.04 34.97 99.04 33.7C99.04 32.43 99.87 31.47 100.98 31.47C102.09 31.47 102.92 32.53 102.92 33.7Z" fill="#FFCF2D" fill-opacity="1.000000" fill-rule="nonzero"/>
	<path id="Vector" d="M119.46 33.7C119.46 34.97 118.63 35.92 117.52 35.92C116.41 35.92 115.58 34.97 115.58 33.7C115.58 32.43 116.41 31.47 117.52 31.47C118.63 31.47 119.46 32.53 119.46 33.7Z" fill="#FFCF2D" fill-opacity="1.000000" fill-rule="nonzero"/>
	<path id="Vector" d="M136 33.7C136 34.97 135.16 35.92 134.06 35.92C132.95 35.92 132.12 34.97 132.12 33.7C132.12 32.43 132.95 31.47 134.06 31.47C135.07 31.47 136 32.53 136 33.7Z" fill="#FFCF2D" fill-opacity="1.000000" fill-rule="nonzero"/>
	<path id="Vector" d="M3.88 49.49C3.88 50.76 3.04 51.72 1.94 51.72C0.83 51.72 0 50.76 0 49.49C0 48.22 0.83 47.27 1.94 47.27C3.04 47.27 3.88 48.22 3.88 49.49Z" fill="#FFCF2D" fill-opacity="1.000000" fill-rule="nonzero"/>
	<path id="Vector" d="M20.41 49.49C20.41 50.76 19.58 51.72 18.47 51.72C17.36 51.72 16.53 50.76 16.53 49.49C16.53 48.22 17.36 47.27 18.47 47.27C19.49 47.27 20.41 48.22 20.41 49.49Z" fill="#FFCF2D" fill-opacity="1.000000" fill-rule="nonzero"/>
	<path id="Vector" d="M36.86 49.49C36.86 50.76 36.03 51.72 34.92 51.72C33.81 51.72 32.98 50.76 32.98 49.49C32.98 48.22 33.81 47.27 34.92 47.27C36.03 47.27 36.86 48.22 36.86 49.49Z" fill="#FFCF2D" fill-opacity="1.000000" fill-rule="nonzero"/>
	<path id="Vector" d="M53.4 49.49C53.4 50.76 52.57 51.72 51.46 51.72C50.35 51.72 49.52 50.76 49.52 49.49C49.52 48.22 50.35 47.27 51.46 47.27C52.57 47.27 53.4 48.22 53.4 49.49Z" fill="#FFCF2D" fill-opacity="1.000000" fill-rule="nonzero"/>
	<path id="Vector" d="M69.93 49.49C69.93 50.76 69.1 51.72 68 51.72C66.89 51.72 66.05 50.76 66.05 49.49C66.05 48.22 66.89 47.27 68 47.27C69.01 47.27 69.93 48.22 69.93 49.49Z" fill="#FFCF2D" fill-opacity="1.000000" fill-rule="nonzero"/>
	<path id="Vector" d="M86.47 49.49C86.47 50.76 85.64 51.72 84.53 51.72C83.42 51.72 82.59 50.76 82.59 49.49C82.59 48.22 83.42 47.27 84.53 47.27C85.64 47.27 86.47 48.22 86.47 49.49Z" fill="#FFCF2D" fill-opacity="1.000000" fill-rule="nonzero"/>
	<path id="Vector" d="M102.92 49.49C102.92 50.76 102.09 51.72 100.98 51.72C99.87 51.72 99.04 50.76 99.04 49.49C99.04 48.22 99.87 47.27 100.98 47.27C102.09 47.27 102.92 48.22 102.92 49.49Z" fill="#FFCF2D" fill-opacity="1.000000" fill-rule="nonzero"/>
	<path id="Vector" d="M119.46 49.49C119.46 50.76 118.63 51.72 117.52 51.72C116.41 51.72 115.58 50.76 115.58 49.49C115.58 48.22 116.41 47.27 117.52 47.27C118.63 47.27 119.46 48.22 119.46 49.49Z" fill="#FFCF2D" fill-opacity="1.000000" fill-rule="nonzero"/>
	<path id="Vector" d="M136 49.49C136 50.76 135.16 51.72 134.06 51.72C132.95 51.72 132.12 50.76 132.12 49.49C132.12 48.22 132.95 47.27 134.06 47.27C135.07 47.27 136 48.22 136 49.49Z" fill="#FFCF2D" fill-opacity="1.000000" fill-rule="nonzero"/>
	<path id="Vector" d="M3.88 2.22C3.88 3.49 3.04 4.45 1.94 4.45C0.83 4.45 0 3.49 0 2.22C0 0.95 0.83 0 1.94 0C3.04 0 3.88 0.95 3.88 2.22Z" fill="#FFCF2D" fill-opacity="1.000000" fill-rule="nonzero"/>
	<path id="Vector" d="M20.41 2.22C20.41 3.49 19.58 4.45 18.47 4.45C17.36 4.45 16.53 3.49 16.53 2.22C16.53 0.95 17.36 0 18.47 0C19.49 0 20.41 0.95 20.41 2.22Z" fill="#FFCF2D" fill-opacity="1.000000" fill-rule="nonzero"/>
	<path id="Vector" d="M36.86 2.22C36.86 3.49 36.03 4.45 34.92 4.45C33.81 4.45 32.98 3.49 32.98 2.22C32.98 0.95 33.9 0 34.92 0C36.03 0 36.86 0.95 36.86 2.22Z" fill="#FFCF2D" fill-opacity="1.000000" fill-rule="nonzero"/>
	<path id="Vector" d="M53.4 2.22C53.4 3.49 52.57 4.45 51.46 4.45C50.35 4.45 49.52 3.49 49.52 2.22C49.52 0.95 50.44 0 51.46 0C52.47 0 53.4 0.95 53.4 2.22Z" fill="#FFCF2D" fill-opacity="1.000000" fill-rule="nonzero"/>
	<path id="Vector" d="M69.93 2.22C69.93 3.49 69.1 4.45 68 4.45C66.89 4.45 66.05 3.49 66.05 2.22C66.05 0.95 66.89 0 68 0C69.01 0 69.93 0.95 69.93 2.22Z" fill="#FFCF2D" fill-opacity="1.000000" fill-rule="nonzero"/>
	<path id="Vector" d="M86.47 2.22C86.47 3.49 85.64 4.45 84.53 4.45C83.42 4.45 82.59 3.49 82.59 2.22C82.59 0.95 83.42 0 84.53 0C85.64 0 86.47 0.95 86.47 2.22Z" fill="#FFCF2D" fill-opacity="1.000000" fill-rule="nonzero"/>
	<path id="Vector" d="M102.92 2.22C102.92 3.49 102.09 4.45 100.98 4.45C99.87 4.45 99.04 3.49 99.04 2.22C99.04 0.95 99.87 0 100.98 0C102.09 0 102.92 0.95 102.92 2.22Z" fill="#FFCF2D" fill-opacity="1.000000" fill-rule="nonzero"/>
	<path id="Vector" d="M119.46 2.22C119.46 3.49 118.63 4.45 117.52 4.45C116.41 4.45 115.58 3.49 115.58 2.22C115.58 0.95 116.41 0 117.52 0C118.63 0 119.46 0.95 119.46 2.22Z" fill="#FFCF2D" fill-opacity="1.000000" fill-rule="nonzero"/>
	<path id="Vector" d="M136 2.22C136 3.49 135.16 4.45 134.06 4.45C132.95 4.45 132.12 3.49 132.12 2.22C132.12 0.95 132.95 0 134.06 0C135.07 0 136 0.95 136 2.22Z" fill="#FFCF2D" fill-opacity="1.000000" fill-rule="nonzero"/>
	<path id="Vector" d="M3.88 18.01C3.88 19.29 3.04 20.24 1.94 20.24C0.83 20.24 0 19.18 0 18.01C0 16.74 0.83 15.79 1.94 15.79C3.04 15.79 3.88 16.74 3.88 18.01Z" fill="#FFCF2D" fill-opacity="1.000000" fill-rule="nonzero"/>
	<path id="Vector" d="M20.41 18.01C20.41 19.29 19.58 20.24 18.47 20.24C17.36 20.24 16.53 19.29 16.53 18.01C16.53 16.74 17.36 15.79 18.47 15.79C19.49 15.79 20.41 16.74 20.41 18.01Z" fill="#FFCF2D" fill-opacity="1.000000" fill-rule="nonzero"/>
	<path id="Vector" d="M36.86 18.01C36.86 19.29 36.03 20.24 34.92 20.24C33.81 20.24 32.98 19.29 32.98 18.01C32.98 16.74 33.81 15.79 34.92 15.79C36.03 15.79 36.86 16.74 36.86 18.01Z" fill="#FFCF2D" fill-opacity="1.000000" fill-rule="nonzero"/>
	<path id="Vector" d="M53.4 18.01C53.4 19.29 52.57 20.24 51.46 20.24C50.35 20.24 49.52 19.29 49.52 18.01C49.52 16.74 50.35 15.79 51.46 15.79C52.57 15.79 53.4 16.74 53.4 18.01Z" fill="#FFCF2D" fill-opacity="1.000000" fill-rule="nonzero"/>
	<path id="Vector" d="M69.93 18.01C69.93 19.29 69.1 20.24 68 20.24C66.89 20.24 66.05 19.29 66.05 18.01C66.05 16.74 66.89 15.79 68 15.79C69.01 15.79 69.93 16.74 69.93 18.01Z" fill="#FFCF2D" fill-opacity="1.000000" fill-rule="nonzero"/>
	<path id="Vector" d="M86.47 18.01C86.47 19.29 85.64 20.24 84.53 20.24C83.42 20.24 82.59 19.29 82.59 18.01C82.59 16.74 83.42 15.79 84.53 15.79C85.64 15.79 86.47 16.74 86.47 18.01Z" fill="#FFCF2D" fill-opacity="1.000000" fill-rule="nonzero"/>
	<path id="Vector" d="M102.92 18.01C102.92 19.29 102.09 20.24 100.98 20.24C99.87 20.24 99.04 19.29 99.04 18.01C99.04 16.74 99.87 15.79 100.98 15.79C102.09 15.79 102.92 16.74 102.92 18.01Z" fill="#FFCF2D" fill-opacity="1.000000" fill-rule="nonzero"/>
	<path id="Vector" d="M119.46 18.01C119.46 19.29 118.63 20.24 117.52 20.24C116.41 20.24 115.58 19.29 115.58 18.01C115.58 16.74 116.41 15.79 117.52 15.79C118.63 15.79 119.46 16.74 119.46 18.01Z" fill="#FFCF2D" fill-opacity="1.000000" fill-rule="nonzero"/>
	<path id="Vector" d="M136 18.01C136 19.29 135.16 20.24 134.06 20.24C132.95 20.24 132.12 19.29 132.12 18.01C132.12 16.74 132.95 15.79 134.06 15.79C135.07 15.79 136 16.74 136 18.01Z" fill="#FFCF2D" fill-opacity="1.000000" fill-rule="nonzero"/>
	<path id="Vector" d="M3.88 65.18C3.88 66.45 3.04 67.41 1.94 67.41C0.83 67.41 0 66.45 0 65.18C0 63.91 0.83 62.95 1.94 62.95C3.04 62.95 3.88 64.01 3.88 65.18Z" fill="#FFCF2D" fill-opacity="1.000000" fill-rule="nonzero"/>
	<path id="Vector" d="M20.41 65.18C20.41 66.45 19.58 67.41 18.47 67.41C17.36 67.41 16.53 66.45 16.53 65.18C16.53 63.91 17.36 62.95 18.47 62.95C19.49 62.95 20.41 64.01 20.41 65.18Z" fill="#FFCF2D" fill-opacity="1.000000" fill-rule="nonzero"/>
	<path id="Vector" d="M36.86 65.18C36.86 66.45 36.03 67.41 34.92 67.41C33.81 67.41 32.98 66.45 32.98 65.18C32.98 63.91 33.81 62.95 34.92 62.95C36.03 62.95 36.86 64.01 36.86 65.18Z" fill="#FFCF2D" fill-opacity="1.000000" fill-rule="nonzero"/>
	<path id="Vector" d="M53.4 65.18C53.4 66.45 52.57 67.41 51.46 67.41C50.35 67.41 49.52 66.45 49.52 65.18C49.52 63.91 50.35 62.95 51.46 62.95C52.57 62.95 53.4 64.01 53.4 65.18Z" fill="#FFCF2D" fill-opacity="1.000000" fill-rule="nonzero"/>
	<path id="Vector" d="M69.93 65.18C69.93 66.45 69.1 67.41 68 67.41C66.89 67.41 66.05 66.45 66.05 65.18C66.05 63.91 66.89 62.95 68 62.95C69.01 62.95 69.93 64.01 69.93 65.18Z" fill="#FFCF2D" fill-opacity="1.000000" fill-rule="nonzero"/>
	<path id="Vector" d="M86.47 65.18C86.47 66.45 85.64 67.41 84.53 67.41C83.42 67.41 82.59 66.45 82.59 65.18C82.59 63.91 83.42 62.95 84.53 62.95C85.64 62.95 86.47 64.01 86.47 65.18Z" fill="#FFCF2D" fill-opacity="1.000000" fill-rule="nonzero"/>
	<path id="Vector" d="M102.92 65.18C102.92 66.45 102.09 67.41 100.98 67.41C99.87 67.41 99.04 66.45 99.04 65.18C99.04 63.91 99.87 62.95 100.98 62.95C102.09 62.95 102.92 64.01 102.92 65.18Z" fill="#FFCF2D" fill-opacity="1.000000" fill-rule="nonzero"/>
	<path id="Vector" d="M119.46 65.18C119.46 66.45 118.63 67.41 117.52 67.41C116.41 67.41 115.58 66.45 115.58 65.18C115.58 63.91 116.41 62.95 117.52 62.95C118.63 62.95 119.46 64.01 119.46 65.18Z" fill="#FFCF2D" fill-opacity="1.000000" fill-rule="nonzero"/>
	<path id="Vector" d="M136 65.18C136 66.45 135.16 67.41 134.06 67.41C132.95 67.41 132.12 66.45 132.12 65.18C132.12 63.91 132.95 62.95 134.06 62.95C135.07 62.95 136 64.01 136 65.18Z" fill="#FFCF2D" fill-opacity="1.000000" fill-rule="nonzero"/>
	<path id="Vector" d="M3.88 80.97C3.88 82.25 3.04 83.2 1.94 83.2C0.83 83.2 0 82.25 0 80.97C0 79.7 0.83 78.75 1.94 78.75C3.04 78.75 3.88 79.7 3.88 80.97Z" fill="#FFCF2D" fill-opacity="1.000000" fill-rule="nonzero"/>
	<path id="Vector" d="M20.41 80.97C20.41 82.25 19.58 83.2 18.47 83.2C17.36 83.2 16.53 82.25 16.53 80.97C16.53 79.7 17.36 78.75 18.47 78.75C19.49 78.75 20.41 79.7 20.41 80.97Z" fill="#FFCF2D" fill-opacity="1.000000" fill-rule="nonzero"/>
	<path id="Vector" d="M36.86 80.97C36.86 82.25 36.03 83.2 34.92 83.2C33.81 83.2 32.98 82.25 32.98 80.97C32.98 79.7 33.81 78.75 34.92 78.75C36.03 78.75 36.86 79.7 36.86 80.97Z" fill="#FFCF2D" fill-opacity="1.000000" fill-rule="nonzero"/>
	<path id="Vector" d="M53.4 80.97C53.4 82.2 52.53 83.2 51.46 83.2C50.39 83.2 49.52 82.2 49.52 80.97C49.52 79.74 50.39 78.75 51.46 78.75C52.53 78.75 53.4 79.74 53.4 80.97Z" fill="#FFCF2D" fill-opacity="1.000000" fill-rule="evenodd"/>
	<path id="Vector" d="M69.93 80.97C69.93 82.24 69.1 83.2 68 83.2C66.89 83.2 66.05 82.24 66.05 80.97C66.05 79.7 66.89 78.75 68 78.75C69.01 78.75 69.93 79.7 69.93 80.97Z" fill="#FFCF2D" fill-opacity="1.000000" fill-rule="nonzero"/>
	<path id="Vector" d="M86.47 80.97C86.47 82.25 85.64 83.2 84.53 83.2C83.42 83.2 82.59 82.25 82.59 80.97C82.59 79.7 83.42 78.75 84.53 78.75C85.64 78.75 86.47 79.7 86.47 80.97Z" fill="#FFCF2D" fill-opacity="1.000000" fill-rule="nonzero"/>
	<path id="Vector" d="M102.92 80.97C102.92 82.25 102.09 83.2 100.98 83.2C99.87 83.2 99.04 82.25 99.04 80.97C99.04 79.7 99.87 78.75 100.98 78.75C102.09 78.75 102.92 79.7 102.92 80.97Z" fill="#FFCF2D" fill-opacity="1.000000" fill-rule="nonzero"/>
	<path id="Vector" d="M119.46 80.97C119.46 82.2 118.59 83.2 117.52 83.2C116.45 83.2 115.58 82.2 115.58 80.97C115.58 79.74 116.45 78.75 117.52 78.75C118.59 78.75 119.46 79.74 119.46 80.97Z" fill="#FFCF2D" fill-opacity="1.000000" fill-rule="evenodd"/>
	<path id="Vector" d="M136 80.97C136 82.25 135.16 83.2 134.06 83.2C132.95 83.2 132.12 82.25 132.12 80.97C132.12 79.7 132.95 78.75 134.06 78.75C135.07 78.75 136 79.7 136 80.97Z" fill="#FFCF2D" fill-opacity="1.000000" fill-rule="nonzero"/>
	<path id="Vector" d="M3.88 96.76C3.88 98.04 3.04 98.99 1.94 98.99C0.83 98.99 0 98.04 0 96.76C0 95.49 0.83 94.54 1.94 94.54C3.04 94.54 3.88 95.49 3.88 96.76Z" fill="#FFCF2D" fill-opacity="1.000000" fill-rule="nonzero"/>
	<path id="Vector" d="M20.41 96.76C20.41 98.04 19.58 98.99 18.47 98.99C17.36 98.99 16.53 98.04 16.53 96.76C16.53 95.49 17.36 94.54 18.47 94.54C19.49 94.54 20.41 95.49 20.41 96.76Z" fill="#FFCF2D" fill-opacity="1.000000" fill-rule="nonzero"/>
	<path id="Vector" d="M36.86 96.76C36.86 98.04 36.03 98.99 34.92 98.99C33.81 98.99 32.98 98.04 32.98 96.76C32.98 95.49 33.81 94.54 34.92 94.54C36.03 94.54 36.86 95.49 36.86 96.76Z" fill="#FFCF2D" fill-opacity="1.000000" fill-rule="nonzero"/>
	<path id="Vector" d="M53.4 96.76C53.4 98.04 52.57 98.99 51.46 98.99C50.35 98.99 49.52 98.04 49.52 96.76C49.52 95.49 50.35 94.54 51.46 94.54C52.57 94.54 53.4 95.49 53.4 96.76Z" fill="#FFCF2D" fill-opacity="1.000000" fill-rule="nonzero"/>
	<path id="Vector" d="M69.93 96.76C69.93 98.04 69.1 98.99 68 98.99C66.89 98.99 66.05 98.04 66.05 96.76C66.05 95.49 66.89 94.54 68 94.54C69.01 94.54 69.93 95.49 69.93 96.76Z" fill="#FFCF2D" fill-opacity="1.000000" fill-rule="nonzero"/>
	<path id="Vector" d="M86.47 96.76C86.47 98.04 85.64 98.99 84.53 98.99C83.42 98.99 82.59 98.04 82.59 96.76C82.59 95.49 83.42 94.54 84.53 94.54C85.64 94.54 86.47 95.49 86.47 96.76Z" fill="#FFCF2D" fill-opacity="1.000000" fill-rule="nonzero"/>
	<path id="Vector" d="M102.92 96.76C102.92 98.04 102.09 98.99 100.98 98.99C99.87 98.99 99.04 98.04 99.04 96.76C99.04 95.49 99.87 94.54 100.98 94.54C102.09 94.54 102.92 95.49 102.92 96.76Z" fill="#FFCF2D" fill-opacity="1.000000" fill-rule="nonzero"/>
	<path id="Vector" d="M119.46 96.76C119.46 98.04 118.63 98.99 117.52 98.99C116.41 98.99 115.58 98.04 115.58 96.76C115.58 95.49 116.41 94.54 117.52 94.54C118.63 94.54 119.46 95.49 119.46 96.76Z" fill="#FFCF2D" fill-opacity="1.000000" fill-rule="nonzero"/>
	<path id="Vector" d="M136 96.76C136 98.04 135.16 98.99 134.06 98.99C132.95 98.99 132.12 98.04 132.12 96.76C132.12 95.49 132.95 94.54 134.06 94.54C135.07 94.54 136 95.49 136 96.76Z" fill="#FFCF2D" fill-opacity="1.000000" fill-rule="nonzero"/>
	<path id="Vector" d="M3.88 112.45C3.88 113.72 3.04 114.68 1.94 114.68C0.83 114.68 0 113.72 0 112.45C0 111.18 0.83 110.23 1.94 110.23C3.04 110.23 3.88 111.29 3.88 112.45Z" fill="#FFCF2D" fill-opacity="1.000000" fill-rule="nonzero"/>
	<path id="Vector" d="M20.41 112.45C20.41 113.72 19.58 114.68 18.47 114.68C17.36 114.68 16.53 113.72 16.53 112.45C16.53 111.18 17.36 110.23 18.47 110.23C19.49 110.23 20.41 111.29 20.41 112.45Z" fill="#FFCF2D" fill-opacity="1.000000" fill-rule="nonzero"/>
	<path id="Vector" d="M36.86 112.45C36.86 113.72 36.03 114.68 34.92 114.68C33.81 114.68 32.98 113.72 32.98 112.45C32.98 111.18 33.81 110.23 34.92 110.23C36.03 110.23 36.86 111.29 36.86 112.45Z" fill="#FFCF2D" fill-opacity="1.000000" fill-rule="nonzero"/>
	<path id="Vector" d="M53.4 112.45C53.4 113.72 52.57 114.68 51.46 114.68C50.35 114.68 49.52 113.72 49.52 112.45C49.52 111.18 50.35 110.23 51.46 110.23C52.57 110.23 53.4 111.29 53.4 112.45Z" fill="#FFCF2D" fill-opacity="1.000000" fill-rule="nonzero"/>
	<path id="Vector" d="M69.93 112.45C69.93 113.72 69.1 114.68 68 114.68C66.89 114.68 66.05 113.72 66.05 112.45C66.05 111.18 66.89 110.23 68 110.23C69.01 110.23 69.93 111.29 69.93 112.45Z" fill="#FFCF2D" fill-opacity="1.000000" fill-rule="nonzero"/>
	<path id="Vector" d="M86.47 112.45C86.47 113.72 85.64 114.68 84.53 114.68C83.42 114.68 82.59 113.72 82.59 112.45C82.59 111.18 83.42 110.23 84.53 110.23C85.64 110.23 86.47 111.29 86.47 112.45Z" fill="#FFCF2D" fill-opacity="1.000000" fill-rule="nonzero"/>
	<path id="Vector" d="M102.92 112.45C102.92 113.72 102.09 114.68 100.98 114.68C99.87 114.68 99.04 113.72 99.04 112.45C99.04 111.18 99.87 110.23 100.98 110.23C102.09 110.23 102.92 111.29 102.92 112.45Z" fill="#FFCF2D" fill-opacity="1.000000" fill-rule="nonzero"/>
	<path id="Vector" d="M119.46 112.45C119.46 113.72 118.63 114.68 117.52 114.68C116.41 114.68 115.58 113.72 115.58 112.45C115.58 111.18 116.41 110.23 117.52 110.23C118.63 110.23 119.46 111.29 119.46 112.45Z" fill="#FFCF2D" fill-opacity="1.000000" fill-rule="nonzero"/>
	<path id="Vector" d="M136 112.45C136 113.72 135.16 114.68 134.06 114.68C132.95 114.68 132.12 113.72 132.12 112.45C132.12 111.18 132.95 110.23 134.06 110.23C135.07 110.23 136 111.29 136 112.45Z" fill="#FFCF2D" fill-opacity="1.000000" fill-rule="nonzero"/>
</svg>
