<svg width="242.166016" height="242.166016" viewBox="0 0 242.166 242.166" fill="none" xmlns="http://www.w3.org/2000/svg" xmlns:xlink="http://www.w3.org/1999/xlink">
	<desc>
			Created with Pixso.
	</desc>
	<defs/>
	<path id="Vector" d="M121.08 0C54.14 0 0 54.14 0 121.08C0 187.85 54.14 242.16 121.08 242.16C187.85 242.16 242.16 188.02 242.16 121.08C242 54.14 187.85 0 121.08 0ZM121.08 234.35C58.46 234.35 7.8 183.7 7.8 121.08C7.8 58.46 58.46 7.8 121.08 7.8C183.7 7.8 234.36 58.46 234.36 121.08C234.36 183.53 183.53 234.35 121.08 234.35Z" fill="#FFCF2D" fill-opacity="1.000000" fill-rule="nonzero"/>
	<path id="Vector" d="M121.08 26.07C68.76 26.07 26.24 68.59 26.24 120.91C26.24 173.23 68.76 215.75 121.08 215.75C173.4 215.75 215.92 173.4 215.92 121.08C215.92 68.59 173.4 26.07 121.08 26.07ZM121.08 201.3C76.73 201.3 40.69 165.26 40.69 120.91C40.69 76.56 76.73 40.52 121.08 40.52C165.43 40.52 201.47 76.56 201.47 120.91C201.47 165.26 165.43 201.3 121.08 201.3Z" fill="#FFCF2D" fill-opacity="1.000000" fill-rule="nonzero"/>
</svg>
