<svg width="258.000000" height="258.000000" viewBox="0 0 258 258" fill="none" xmlns="http://www.w3.org/2000/svg" xmlns:xlink="http://www.w3.org/1999/xlink">
	<desc>
			Created with Pixso.
	</desc>
	<defs>
		<clipPath id="clip2234_9739">
			<rect id="circles" width="258.000000" height="258.000000" fill="white" fill-opacity="0"/>
		</clipPath>
	</defs>
	<g opacity="0.400000">
		<g clip-path="url(#clip2234_9739)">
			<path id="Vector" d="M129.08 0C57.72 0 0 57.72 0 129.08C0 200.27 57.72 258.17 129.08 258.17C200.27 258.17 258.17 200.45 258.17 129.08C258 57.72 200.27 0 129.08 0ZM129.08 249.85C62.33 249.85 8.32 195.84 8.32 129.08C8.32 62.33 62.33 8.32 129.08 8.32C195.84 8.32 249.85 62.33 249.85 129.08C249.85 195.67 195.66 249.85 129.08 249.85Z" fill="#FFFFFF" fill-opacity="1.000000" fill-rule="nonzero"/>
			<path id="Vector" d="M129.08 27.8C73.3 27.8 27.97 73.13 27.97 128.91C27.97 184.68 73.3 230.02 129.08 230.02C184.86 230.02 230.19 184.86 230.19 129.08C230.19 73.13 184.86 27.8 129.08 27.8ZM129.08 214.61C81.8 214.61 43.38 176.19 43.38 128.91C43.38 81.63 81.8 43.2 129.08 43.2C176.36 43.2 214.79 81.63 214.79 128.91C214.79 176.19 176.36 214.61 129.08 214.61Z" fill="#FFFFFF" fill-opacity="1.000000" fill-rule="nonzero"/>
		</g>
	</g>
</svg>
