<svg width="16.000000" height="16.000000" viewBox="0 0 16 16" fill="none" xmlns="http://www.w3.org/2000/svg" xmlns:xlink="http://www.w3.org/1999/xlink">
	<desc>
			Created with Pixso.
	</desc>
	<defs>
		<clipPath id="clip8_350">
			<rect id="Calendar" width="16.000000" height="16.000000" fill="white" fill-opacity="0"/>
		</clipPath>
	</defs>
	<g clip-path="url(#clip8_350)">
		<path id="Vector (Stroke)" d="M5 0.83C5.36 0.83 5.66 1.13 5.66 1.5L5.66 1.83L10.33 1.83L10.33 1.5C10.33 1.13 10.63 0.83 11 0.83C11.36 0.83 11.66 1.13 11.66 1.5L11.66 1.83L12.5 1.83C13.97 1.83 15.16 3.02 15.16 4.5L15.16 12.5C15.16 13.97 13.97 15.16 12.5 15.16L3.5 15.16C2.02 15.16 0.83 13.97 0.83 12.5L0.83 6L0.83 4.5C0.83 3.02 2.02 1.83 3.5 1.83L4.33 1.83L4.33 1.5C4.33 1.13 4.63 0.83 5 0.83ZM4.33 3.16L3.5 3.16C2.76 3.16 2.16 3.76 2.16 4.5L2.16 5.33L13.83 5.33L13.83 4.5C13.83 3.76 13.23 3.16 12.5 3.16L11.66 3.16L11.66 3.5C11.66 3.86 11.36 4.16 11 4.16C10.63 4.16 10.33 3.86 10.33 3.5L10.33 3.16L5.66 3.16L5.66 3.5C5.66 3.86 5.36 4.16 5 4.16C4.63 4.16 4.33 3.86 4.33 3.5L4.33 3.16ZM13.83 6.66L2.16 6.66L2.16 12.5C2.16 13.23 2.76 13.83 3.5 13.83L12.5 13.83C13.23 13.83 13.83 13.23 13.83 12.5L13.83 6.66Z" fill="#787A80" fill-opacity="1.000000" fill-rule="evenodd"/>
	</g>
</svg>
