<svg width="16.000000" height="16.000000" viewBox="0 0 16 16" fill="none" xmlns="http://www.w3.org/2000/svg" xmlns:xlink="http://www.w3.org/1999/xlink">
	<desc>
			Created with Pixso.
	</desc>
	<defs/>
	<path id="Union" d="M0.66 8C0.66 3.94 3.94 0.66 8 0.66C12.04 0.66 15.33 3.94 15.33 8C15.33 12.04 12.04 15.33 8 15.33C3.94 15.33 0.66 12.04 0.66 8ZM8 2C4.68 2 2 4.68 2 8C2 11.31 4.68 14 8 14C11.31 14 14 11.31 14 8C14 4.68 11.31 2 8 2ZM8 3.66C8.36 3.66 8.66 3.96 8.66 4.33L8.66 7.72L10.47 9.52C10.73 9.78 10.73 10.21 10.47 10.47C10.21 10.73 9.78 10.73 9.52 10.47L7.52 8.47C7.4 8.34 7.33 8.17 7.33 8L7.33 4.33C7.33 3.96 7.63 3.66 8 3.66Z" fill="#787A80" fill-opacity="1.000000" fill-rule="evenodd"/>
</svg>
